<?xml version="1.0" encoding="UTF-8"?>
<!DOCTYPE svg PUBLIC "-//W3C//DTD SVG 1.1//EN" "http://www.w3.org/Graphics/SVG/1.1/DTD/svg11.dtd">
<svg xmlns="http://www.w3.org/2000/svg" version="1.1" width="512px" height="512px" style="shape-rendering:geometricPrecision; text-rendering:geometricPrecision; image-rendering:optimizeQuality; fill-rule:evenodd; clip-rule:evenodd" xmlns:xlink="http://www.w3.org/1999/xlink">
<g><path style="opacity:0.955" fill="#f0c418" d="M 251.5,-0.5 C 254.167,-0.5 256.833,-0.5 259.5,-0.5C 261.475,0.646381 262.975,2.31305 264,4.5C 264.667,10.1667 264.667,15.8333 264,21.5C 258.333,28.1667 252.667,28.1667 247,21.5C 246.333,15.8333 246.333,10.1667 247,4.5C 248.025,2.31305 249.525,0.646381 251.5,-0.5 Z"/></g>
<g><path style="opacity:0.958" fill="#f0c418" d="M 168.5,6.5 C 172.077,6.20509 175.243,7.20509 178,9.5C 181.941,17.716 185.608,26.0493 189,34.5C 192.572,46.2535 188.405,51.0869 176.5,49C 172.893,45.5281 170.393,41.3615 169,36.5C 166.102,29.8066 163.602,22.9733 161.5,16C 162.043,11.3765 164.377,8.20984 168.5,6.5 Z"/></g>
<g><path style="opacity:0.957" fill="#f0c418" d="M 337.5,6.5 C 344.397,6.1052 348.397,9.27187 349.5,16C 346.259,26.0562 342.425,35.8895 338,45.5C 333.038,51.7086 327.705,52.042 322,46.5C 320.543,43.634 320.21,40.634 321,37.5C 324.61,28.0025 328.61,18.6692 333,9.5C 334.652,8.60064 336.152,7.60064 337.5,6.5 Z"/></g>
<g><path style="opacity:0.953" fill="#f0c418" d="M 101.5,59.5 C 104.32,59.2475 106.986,59.7475 109.5,61C 113.333,64.8333 117.167,68.6667 121,72.5C 124.402,82.4233 120.902,87.2566 110.5,87C 102.992,82.831 97.6583,76.831 94.5,69C 95.0381,64.3923 97.3714,61.2257 101.5,59.5 Z"/></g>
<g><path style="opacity:0.958" fill="#f0c418" d="M 403.5,59.5 C 413.795,59.1463 417.629,63.813 415,73.5C 410.794,80.048 405.128,84.7147 398,87.5C 390.306,86.4501 387.306,82.1168 389,74.5C 393.364,68.9703 398.198,63.9703 403.5,59.5 Z"/></g>
<g><path style="opacity:0.984" fill="#fe5364" d="M 317.5,95.5 C 319.085,101.466 318.752,107.299 316.5,113C 311.506,116.666 307.006,116.166 303,111.5C 302.382,96.2147 294.548,88.3814 279.5,88C 268.214,91.7304 262.714,99.5638 263,111.5C 256.863,117.255 251.53,116.588 247,109.5C 246.616,101.033 248.449,93.0331 252.5,85.5C 267.716,67.9644 285.382,65.1311 305.5,77C 311.406,81.9914 315.406,88.158 317.5,95.5 Z"/></g>
<g><path style="opacity:0.998" fill="#fb7a75" d="M 252.5,85.5 C 248.449,93.0331 246.616,101.033 247,109.5C 251.53,116.588 256.863,117.255 263,111.5C 262.714,99.5638 268.214,91.7304 279.5,88C 294.548,88.3814 302.382,96.2147 303,111.5C 307.006,116.166 311.506,116.666 316.5,113C 318.752,107.299 319.085,101.466 317.5,95.5C 340.835,96.2481 359.001,106.248 372,125.5C 375.915,132.084 378.749,139.084 380.5,146.5C 371.265,146.977 363.431,150.643 357,157.5C 355.354,164.549 358.021,168.882 365,170.5C 369.361,169.069 373.528,167.235 377.5,165C 392.981,164.481 400.481,171.981 400,187.5C 398.587,190.661 396.92,193.661 395,196.5C 391.08,198.457 387.746,201.123 385,204.5C 383.722,214.221 387.889,218.055 397.5,216C 402.443,212.714 407.11,209.214 411.5,205.5C 415.464,217.847 415.464,230.181 411.5,242.5C 408.154,247.866 404.821,253.2 401.5,258.5C 401.631,257.761 401.464,257.094 401,256.5C 387.125,265.225 372.958,265.725 358.5,258C 358.043,257.586 357.709,257.086 357.5,256.5C 363.169,246.984 364.002,236.984 360,226.5C 354.667,219.833 349.333,219.833 344,226.5C 344.132,232.493 344.132,238.493 344,244.5C 340.56,251.214 335.06,253.714 327.5,252C 323.167,250.333 320.167,247.333 318.5,243C 308.647,238.52 303.814,241.687 304,252.5C 312.51,268.17 325.343,273.504 342.5,268.5C 357.292,280.698 373.959,284.365 392.5,279.5C 386.494,288.839 378.827,296.506 369.5,302.5C 362.616,303.874 355.95,305.874 349.5,308.5C 345.217,313.975 345.884,318.808 351.5,323C 355.167,323.667 358.833,323.667 362.5,323C 367.485,321.061 372.485,319.228 377.5,317.5C 384.154,328.803 382.487,338.637 372.5,347C 365.65,350.546 358.983,350.213 352.5,346C 347.376,339.87 341.376,334.87 334.5,331C 325.179,328.115 316.179,324.449 307.5,320C 303.051,317.716 299.384,314.549 296.5,310.5C 302.73,309.924 308.73,308.424 314.5,306C 319.833,301 319.833,296 314.5,291C 313.127,290.125 311.627,289.625 310,289.5C 303.937,291.224 297.77,292.391 291.5,293C 290.027,293.71 289.36,294.876 289.5,296.5C 288.596,295.791 288.263,294.791 288.5,293.5C 279.055,293.398 269.889,291.731 261,288.5C 258.684,289.65 256.85,291.317 255.5,293.5C 235.067,308.284 214.734,308.118 194.5,293C 188.697,287.192 184.03,280.692 180.5,273.5C 180.435,267.036 180.602,260.37 181,253.5C 183.268,248.803 185.102,243.969 186.5,239C 185.309,231.56 180.975,228.893 173.5,231C 169.686,234.79 167.02,239.29 165.5,244.5C 158.809,245.342 154.642,242.342 153,235.5C 153.091,227.591 149.258,223.758 141.5,224C 139.376,225.122 137.543,226.622 136,228.5C 134.683,247.871 143.516,259.537 162.5,263.5C 162.269,267.993 162.936,272.326 164.5,276.5C 146.061,277.854 130.061,272.354 116.5,260C 111.213,254.553 106.547,248.72 102.5,242.5C 94.5,223.167 94.5,203.833 102.5,184.5C 106.364,190.86 111.697,195.693 118.5,199C 126.977,199.181 130.477,195.014 129,186.5C 126.629,183.794 123.963,181.461 121,179.5C 112.775,166.189 115.608,156.022 129.5,149C 135.557,147.838 141.223,148.838 146.5,152C 148.751,154.867 151.417,157.2 154.5,159C 162.977,159.181 166.477,155.014 165,146.5C 156.264,134.553 144.431,129.219 129.5,130.5C 133.822,111.682 145.655,101.682 165,100.5C 170.049,100.471 174.883,101.471 179.5,103.5C 198.987,78.2118 223.32,72.2118 252.5,85.5 Z"/></g>
<g><path style="opacity:0.96" fill="#f0c418" d="M 48.5,126.5 C 50.8568,126.337 53.1902,126.503 55.5,127C 64.1667,130.667 72.8333,134.333 81.5,138C 85.7211,141.822 86.5545,146.322 84,151.5C 81.0878,154.544 77.5878,155.711 73.5,155C 64.0025,151.39 54.6692,147.39 45.5,143C 40.7678,136.313 41.7678,130.813 48.5,126.5 Z"/></g>
<g><path style="opacity:0.96" fill="#f0c418" d="M 455.5,126.5 C 465.376,125.541 469.543,129.874 468,139.5C 467.535,140.931 466.701,142.097 465.5,143C 454.907,148.479 443.907,152.479 432.5,155C 426.75,152.777 424.584,148.61 426,142.5C 426.785,140.714 427.951,139.214 429.5,138C 438.374,134.391 447.041,130.558 455.5,126.5 Z"/></g>
<g><path style="opacity:0.989" fill="#fe5364" d="M 129.5,130.5 C 144.431,129.219 156.264,134.553 165,146.5C 166.477,155.014 162.977,159.181 154.5,159C 151.417,157.2 148.751,154.867 146.5,152C 141.223,148.838 135.557,147.838 129.5,149C 115.608,156.022 112.775,166.189 121,179.5C 123.963,181.461 126.629,183.794 129,186.5C 130.477,195.014 126.977,199.181 118.5,199C 111.697,195.693 106.364,190.86 102.5,184.5C 94.7332,166.886 97.7332,151.386 111.5,138C 116.939,134.113 122.939,131.613 129.5,130.5 Z"/></g>
<g><path style="opacity:1" fill="#fe5364" d="M 220.5,140.5 C 225.408,139.874 229.908,140.874 234,143.5C 237.759,149.492 236.592,154.325 230.5,158C 219.17,157.579 211.003,162.412 206,172.5C 205.308,177.702 203.975,182.702 202,187.5C 196.97,191.758 192.303,191.424 188,186.5C 185.653,171.341 190.486,158.841 202.5,149C 208.208,145.31 214.208,142.477 220.5,140.5 Z"/></g>
<g><path style="opacity:0.987" fill="#fe5364" d="M 380.5,146.5 C 403.684,148.017 416.351,160.351 418.5,183.5C 418.168,191.495 415.835,198.829 411.5,205.5C 407.11,209.214 402.443,212.714 397.5,216C 387.889,218.055 383.722,214.221 385,204.5C 387.746,201.123 391.08,198.457 395,196.5C 396.92,193.661 398.587,190.661 400,187.5C 400.481,171.981 392.981,164.481 377.5,165C 373.528,167.235 369.361,169.069 365,170.5C 358.021,168.882 355.354,164.549 357,157.5C 363.431,150.643 371.265,146.977 380.5,146.5 Z"/></g>
<g><path style="opacity:1" fill="#fe5364" d="M 306.5,175.5 C 314.439,175.747 317.939,179.747 317,187.5C 310.874,210.125 296.374,224.125 273.5,229.5C 264.834,248.343 250.167,257.51 229.5,257C 222.412,252.47 221.745,247.137 227.5,241C 237.788,240.462 246.455,236.462 253.5,229C 242.343,225.84 232.843,220.006 225,211.5C 221.575,204.121 223.741,199.455 231.5,197.5C 233.577,197.692 235.577,198.192 237.5,199C 251.398,212.919 267.065,215.252 284.5,206C 293.657,199.535 299.157,190.701 301,179.5C 302.812,178.023 304.645,176.69 306.5,175.5 Z"/></g>
<g><path style="opacity:1" fill="#fe5464" d="M 401.5,258.5 C 400.386,266.386 397.386,273.386 392.5,279.5C 373.959,284.365 357.292,280.698 342.5,268.5C 325.343,273.504 312.51,268.17 304,252.5C 303.814,241.687 308.647,238.52 318.5,243C 320.167,247.333 323.167,250.333 327.5,252C 335.06,253.714 340.56,251.214 344,244.5C 344.132,238.493 344.132,232.493 344,226.5C 349.333,219.833 354.667,219.833 360,226.5C 364.002,236.984 363.169,246.984 357.5,256.5C 357.709,257.086 358.043,257.586 358.5,258C 372.958,265.725 387.125,265.225 401,256.5C 401.464,257.094 401.631,257.761 401.5,258.5 Z"/></g>
<g><path style="opacity:1" fill="#fe5364" d="M 180.5,273.5 C 175.291,275.135 169.958,276.135 164.5,276.5C 162.936,272.326 162.269,267.993 162.5,263.5C 143.516,259.537 134.683,247.871 136,228.5C 137.543,226.622 139.376,225.122 141.5,224C 149.258,223.758 153.091,227.591 153,235.5C 154.642,242.342 158.809,245.342 165.5,244.5C 167.02,239.29 169.686,234.79 173.5,231C 180.975,228.893 185.309,231.56 186.5,239C 185.102,243.969 183.268,248.803 181,253.5C 180.602,260.37 180.435,267.036 180.5,273.5 Z"/></g>
<g><path style="opacity:1" fill="#f4eec9" d="M 102.5,242.5 C 106.547,248.72 111.213,254.553 116.5,260C 130.061,272.354 146.061,277.854 164.5,276.5C 169.958,276.135 175.291,275.135 180.5,273.5C 184.03,280.692 188.697,287.192 194.5,293C 214.734,308.118 235.067,308.284 255.5,293.5C 255.832,348.336 255.499,403.003 254.5,457.5C 241.471,452.49 228.138,448.49 214.5,445.5C 160.506,434.897 107.339,437.897 55,454.5C 51.5179,454.094 48.8512,452.428 47,449.5C 46.3333,445.167 46.3333,440.833 47,436.5C 56.6115,379.831 66.1115,323.164 75.5,266.5C 75.898,260.778 76.7313,255.111 78,249.5C 80.5579,245.97 84.0579,244.137 88.5,244C 93.1373,243.171 97.804,242.671 102.5,242.5 Z"/></g>
<g><path style="opacity:1" fill="#f8e9af" d="M 411.5,242.5 C 418.047,242.91 424.38,244.244 430.5,246.5C 431.333,247.5 432.167,248.5 433,249.5C 434.269,255.111 435.102,260.778 435.5,266.5C 445.059,323.134 454.559,379.801 464,436.5C 465.047,441.755 464.547,446.755 462.5,451.5C 460.651,453.174 458.484,454.174 456,454.5C 403.593,437.956 350.427,434.956 296.5,445.5C 282.295,448.135 268.628,452.468 255.5,458.5C 254.893,458.376 254.56,458.043 254.5,457.5C 255.499,403.003 255.832,348.336 255.5,293.5C 256.85,291.317 258.684,289.65 261,288.5C 269.889,291.731 279.055,293.398 288.5,293.5C 288.263,294.791 288.596,295.791 289.5,296.5C 289.732,302.297 292.065,306.963 296.5,310.5C 299.384,314.549 303.051,317.716 307.5,320C 316.179,324.449 325.179,328.115 334.5,331C 341.376,334.87 347.376,339.87 352.5,346C 358.983,350.213 365.65,350.546 372.5,347C 382.487,338.637 384.154,328.803 377.5,317.5C 375.593,312.016 372.927,307.016 369.5,302.5C 378.827,296.506 386.494,288.839 392.5,279.5C 397.386,273.386 400.386,266.386 401.5,258.5C 404.821,253.2 408.154,247.866 411.5,242.5 Z"/></g>
<g><path style="opacity:0.986" fill="#e64c3c" d="M 75.5,266.5 C 66.1115,323.164 56.6115,379.831 47,436.5C 46.3333,440.833 46.3333,445.167 47,449.5C 48.8512,452.428 51.5179,454.094 55,454.5C 107.339,437.897 160.506,434.897 214.5,445.5C 213.782,462.032 212.449,478.365 210.5,494.5C 146.166,494.667 81.8325,494.5 17.5,494C 6.74819,490.902 1.91486,483.735 3,472.5C 16.079,405.105 29.4123,337.772 43,270.5C 44.3189,268.513 46.1523,267.346 48.5,267C 57.4938,266.5 66.4938,266.334 75.5,266.5 Z"/></g>
<g><path style="opacity:0.986" fill="#e64c3c" d="M 435.5,266.5 C 445.58,266.077 455.58,266.577 465.5,268C 467.487,269.319 468.654,271.152 469,273.5C 482.912,342.057 495.912,410.723 508,479.5C 506.5,487.667 501.667,492.5 493.5,494C 429.168,494.5 364.834,494.667 300.5,494.5C 298.566,478.363 297.232,462.029 296.5,445.5C 350.427,434.956 403.593,437.956 456,454.5C 458.484,454.174 460.651,453.174 462.5,451.5C 464.547,446.755 465.047,441.755 464,436.5C 454.559,379.801 445.059,323.134 435.5,266.5 Z"/></g>
<g><path style="opacity:1" fill="#fe5464" d="M 296.5,310.5 C 292.065,306.963 289.732,302.297 289.5,296.5C 289.36,294.876 290.027,293.71 291.5,293C 297.77,292.391 303.937,291.224 310,289.5C 311.627,289.625 313.127,290.125 314.5,291C 319.833,296 319.833,301 314.5,306C 308.73,308.424 302.73,309.924 296.5,310.5 Z"/></g>
<g><path style="opacity:1" fill="#fe5464" d="M 369.5,302.5 C 372.927,307.016 375.593,312.016 377.5,317.5C 372.485,319.228 367.485,321.061 362.5,323C 358.833,323.667 355.167,323.667 351.5,323C 345.884,318.808 345.217,313.975 349.5,308.5C 355.95,305.874 362.616,303.874 369.5,302.5 Z"/></g>
<g><path style="opacity:1" fill="#c03a2b" d="M 214.5,445.5 C 228.138,448.49 241.471,452.49 254.5,457.5C 254.56,458.043 254.893,458.376 255.5,458.5C 268.628,452.468 282.295,448.135 296.5,445.5C 297.232,462.029 298.566,478.363 300.5,494.5C 297.944,500.882 293.278,505.049 286.5,507C 281.126,508.84 275.793,510.34 270.5,511.5C 260.5,511.5 250.5,511.5 240.5,511.5C 232.163,509.996 224.163,507.163 216.5,503C 213.472,500.819 211.472,497.986 210.5,494.5C 212.449,478.365 213.782,462.032 214.5,445.5 Z"/></g>
</svg>
